<svg width="800" height="800" viewBox="0 0 800 800" fill="none" xmlns="http://www.w3.org/2000/svg">
<g clip-path="url(#clip0_519_52)">
<path d="M715.636 0C678.833 0 648.89 29.9421 648.89 66.7466C648.89 75.3481 650.541 83.5622 653.518 91.1184C627.663 120.937 610.851 161.138 603.116 192.031C593.274 189.762 583.043 188.523 572.523 188.523C562.003 188.523 551.771 189.762 541.931 192.031C534.196 161.138 517.384 120.939 491.529 91.1184C494.506 83.5622 496.158 75.3466 496.158 66.7466C496.156 29.9421 466.214 0 429.411 0C392.608 0 362.664 29.9421 362.664 66.7466C362.664 103.551 392.606 133.493 429.411 133.493C439.569 133.493 449.2 131.203 457.83 127.126C478.823 153.346 491.947 190.109 496.293 211.926C468.417 230.837 447.93 259.816 440.012 293.586C405.563 279.213 368.255 271.719 330.347 271.719C197.756 271.719 84.2779 362.186 58.5217 487.562C48.2405 503.77 40.2827 521.978 34.9499 541.662C24.1437 556.592 17.6172 575.821 17.6172 596.793C17.6172 616.713 23.5125 635.055 33.364 649.64C52.0608 727.996 111.87 782.302 180.304 782.302C188.565 782.302 196.713 781.52 204.699 780.005C222.488 789.164 247.716 800.003 284.249 800.003H507.573C583.265 800.003 636.179 783.798 669.338 750.466C709.196 710.399 708.911 656.093 708.724 620.159C708.711 617.716 708.697 615.329 708.697 613.007L708.655 324.657C708.655 277.819 684.874 236.433 648.757 211.93C653.102 190.113 666.226 153.351 687.221 127.131C695.847 131.207 705.479 133.498 715.639 133.498C752.442 133.498 782.386 103.556 782.386 66.7513C782.386 29.9468 752.439 0 715.636 0ZM429.411 84.5122C419.616 84.5122 411.644 76.5419 411.644 66.7451C411.644 56.9482 419.614 48.9779 429.411 48.9779C439.208 48.9779 447.178 56.9482 447.178 66.7451C447.178 76.5419 439.208 84.5122 429.411 84.5122ZM66.5967 596.787C66.5967 577.131 78.3154 559.887 91.6732 559.887C105.029 559.887 116.75 577.131 116.75 596.787C116.75 616.444 105.031 633.688 91.6732 633.688C78.3154 633.687 66.5967 616.443 66.5967 596.787ZM180.304 733.314C147.989 733.316 118.259 713.708 98.9309 682.249C136.371 678.005 165.729 641.301 165.729 596.787C165.729 553.254 137.645 517.206 101.387 511.67C120.845 482.403 149.637 464.225 180.304 464.225C237.604 464.225 284.219 524.582 284.219 598.77C284.219 672.957 237.602 733.314 180.304 733.314ZM411.288 715.916C388.119 739.21 345.375 751.017 284.246 751.017C278.138 751.017 272.54 750.597 267.327 749.881C275.458 743.111 283.105 735.341 290.154 726.611C317.91 692.232 333.197 646.832 333.197 598.771C333.197 550.71 317.911 505.311 290.152 470.931C261.16 435.023 222.148 415.247 180.302 415.247C165.634 415.247 151.324 417.687 137.637 422.414C178.442 360.6 250.121 320.694 330.347 320.694C367.461 320.694 403.833 329.361 436.392 345.827V613.001C436.392 615.405 436.405 617.876 436.419 620.409C436.591 653.162 436.784 690.286 411.288 715.916ZM659.676 324.653L659.718 613.004C659.718 615.407 659.73 617.877 659.744 620.409C659.916 653.165 660.11 690.288 634.613 715.916C611.445 739.21 568.701 751.017 507.573 751.017H445.455C445.641 750.831 445.826 750.646 446.012 750.46C485.87 710.393 485.586 656.087 485.398 620.151C485.386 617.709 485.372 615.321 485.372 612.999V324.65C485.372 276.594 524.467 237.499 572.523 237.499C620.58 237.499 659.676 276.594 659.676 324.653ZM715.636 84.5122C705.841 84.5122 697.869 76.5419 697.869 66.7451C697.869 56.9482 705.84 48.9779 715.636 48.9779C725.432 48.9779 733.403 56.9482 733.403 66.7451C733.403 76.5419 725.432 84.5122 715.636 84.5122Z" fill="white"/>
</g>
<defs>
<clipPath id="clip0_519_52">
<rect width="800" height="800" fill="white"/>
</clipPath>
</defs>
</svg>
