<svg preserveAspectRatio="none" width="100%" height="100%" overflow="visible" style="display: block;" viewBox="0 0 67 67" fill="none" xmlns="http://www.w3.org/2000/svg">
<g id="svgviewer-output 1" clip-path="url(#clip0_340_61)">
<path id="Vector" d="M66.5348 15.1282V53.688C66.5348 56.1942 64.5054 58.2235 61.9993 58.2235H51.4119V32.5188L33.2673 46.1307L15.1226 32.5188V58.2263H4.53522C3.93938 58.2263 3.34938 58.1089 2.79893 57.8808C2.24848 57.6526 1.74837 57.3183 1.32718 56.8969C0.905983 56.4754 0.571961 55.9751 0.344195 55.4245C0.11643 54.8739 -0.000615094 54.2839 -0.000250889 53.688V15.1282C-0.000250889 9.51986 6.40097 6.31786 10.8865 9.68343L15.1226 12.8632L33.2673 26.4697L51.4119 12.8577L55.648 9.68343C60.1308 6.32063 66.5348 9.51986 66.5348 15.1282Z" fill="var(--fill-0, black)"/>
</g>
<defs>
<clipPath id="clip0_340_61">
<rect width="66.535" height="66.535" fill="white"/>
</clipPath>
</defs>
</svg>
