<svg preserveAspectRatio="none" width="100%" height="100%" overflow="visible" style="display: block;" viewBox="0 0 58 58" fill="none" xmlns="http://www.w3.org/2000/svg">
<g id="linkedin-svgrepo-com (1) 1">
<path id="Vector" d="M51.2876 1.78962H5.73489C5.72064 1.78962 5.7046 1.78962 5.68677 1.78962C3.54993 1.78962 1.81586 3.50765 1.79091 5.63736V51.3897C1.81586 53.5212 3.54993 55.241 5.68677 55.241C5.7046 55.241 5.72064 55.241 5.73846 55.241H51.2823C51.2965 55.241 51.3143 55.241 51.3322 55.241C53.4708 55.241 55.2084 53.5247 55.2423 51.3933V51.3897V5.64093C55.2084 3.50765 53.4708 1.78962 51.3304 1.78962C51.3126 1.78962 51.2965 1.78962 51.2787 1.78962H51.2876ZM17.6435 47.3388H9.70561V21.8339H17.6435V47.3388ZM13.6763 18.3444C11.1367 18.3444 9.08006 16.2859 9.08006 13.7481C9.08006 11.2103 11.1385 9.15184 13.6763 9.15184C16.2142 9.15184 18.2726 11.2085 18.2726 13.7463C18.2726 13.7481 18.2726 13.7499 18.2726 13.7534C18.2726 16.2895 16.2159 18.3461 13.6799 18.3461C13.6781 18.3461 13.6763 18.3461 13.6745 18.3461L13.6763 18.3444ZM47.3276 47.3388H39.4129V34.9365C39.4129 31.9781 39.3523 28.1731 35.2889 28.1731C31.1614 28.1731 30.5323 31.3918 30.5323 34.7191V47.3406H22.6176V21.8357H30.2204V25.3127H30.3237C31.7994 22.8266 34.4691 21.187 37.522 21.187C37.6307 21.187 37.7376 21.1887 37.8446 21.1923H37.8285C45.8484 21.1923 47.3312 26.4711 47.3312 33.3415V47.3406L47.3276 47.3388Z" fill="var(--fill-0, black)"/>
</g>
</svg>
