<svg preserveAspectRatio="none" width="100%" height="100%" overflow="visible" style="display: block;" viewBox="0 0 79 79" fill="none" xmlns="http://www.w3.org/2000/svg">
<g id="youtube-svgrepo-com 1">
<path id="Vector" d="M30.1874 50.4412V28.6636L49.3323 39.5536L30.1874 50.4412ZM72.7706 21.8082C71.906 18.6308 69.4638 16.1739 66.3597 15.3044L66.2937 15.2898C58.4956 14.2982 49.4764 13.7316 40.3228 13.7316C39.3923 13.7316 38.4642 13.7365 37.5386 13.7487L37.6803 13.7463C36.8938 13.7365 35.9682 13.7292 35.0377 13.7292C25.8842 13.7292 16.86 14.2958 8.00195 15.3924L9.06189 15.2849C5.89428 16.1714 3.45202 18.6259 2.60456 21.7398L2.58991 21.8033C1.613 26.954 1.05617 32.8814 1.05617 38.9382C1.05617 39.1531 1.05617 39.368 1.05861 39.5805V39.5463C1.05861 39.727 1.05617 39.9419 1.05617 40.1568C1.05617 46.2136 1.61545 52.1386 2.68271 57.8852L2.58991 57.2893C3.45447 60.4666 5.89672 62.9236 9.00083 63.793L9.06677 63.8077C16.8649 64.7992 25.8842 65.3658 35.0377 65.3658C35.9658 65.3658 36.8939 65.3609 37.8219 65.3487L37.6803 65.3512C38.4667 65.3609 39.3947 65.3683 40.3228 65.3683C49.4788 65.3683 58.5005 64.8017 67.3586 63.7051L66.2986 63.8125C69.4687 62.9284 71.9109 60.4715 72.7608 57.3577L72.7755 57.2942C73.7499 52.1434 74.3068 46.2161 74.3068 40.1617C74.3068 39.9468 74.3068 39.7319 74.3043 39.5194V39.5512C74.3043 39.3704 74.3068 39.1555 74.3068 38.9406C74.3068 32.8838 73.7475 26.9589 72.6802 21.2123L72.7706 21.8082Z" fill="var(--fill-0, black)"/>
</g>
</svg>
