<svg preserveAspectRatio="none" width="100%" height="100%" overflow="visible" style="display: block;" viewBox="0 0 79 79" fill="none" xmlns="http://www.w3.org/2000/svg">
<g id="instagram-svgrepo-com 1">
<path id="Vector" d="M49.9318 12.211H28.2177C23.9735 12.2142 19.904 13.9017 16.9029 16.9028C13.9018 19.9039 12.2143 23.9734 12.2111 28.2176V49.9317C12.2137 54.1763 13.9009 58.2464 16.902 61.248C19.9032 64.2497 23.973 65.9374 28.2177 65.9407H49.9318C54.1762 65.9368 58.2456 64.2488 61.2467 61.2473C64.2477 58.2458 65.9351 54.1761 65.9383 49.9317V28.2176C65.9364 23.973 64.2494 19.9028 61.248 16.9014C58.2466 13.9 54.1764 12.213 49.9318 12.211ZM60.5361 49.9317C60.5354 52.7439 59.418 55.4408 57.4294 57.4293C55.4409 59.4179 52.744 60.5353 49.9318 60.536H28.2177C26.8252 60.536 25.4464 60.2616 24.16 59.7287C22.8735 59.1958 21.7047 58.4146 20.7202 57.4299C19.7357 56.4452 18.9548 55.2761 18.4221 53.9896C17.8895 52.703 17.6155 51.3241 17.6158 49.9317V28.2176C17.6155 26.8252 17.8895 25.4465 18.4222 24.16C18.9549 22.8736 19.7358 21.7048 20.7203 20.7202C21.7049 19.7357 22.8737 18.9548 24.1601 18.4221C25.4466 17.8894 26.8253 17.6154 28.2177 17.6157H49.9318C52.7434 17.6164 55.4396 18.7336 57.4277 20.7217C59.4158 22.7097 60.533 25.406 60.5336 28.2176L60.5361 49.9317Z" fill="var(--fill-0, black)"/>
<path id="Vector_2" d="M39.0761 25.1841C31.4123 25.1841 25.1846 31.4143 25.1846 39.0756C25.1846 46.737 31.4148 52.9672 39.0761 52.9672C46.7375 52.9672 52.9677 46.737 52.9677 39.0756C52.9677 31.4143 46.7399 25.1841 39.0761 25.1841ZM39.0761 47.5625C36.8253 47.5628 34.6665 46.669 33.0747 45.0776C31.4828 43.4863 30.5884 41.3277 30.5881 39.0769C30.5877 36.826 31.4816 34.6672 33.0729 33.0754C34.6643 31.4836 36.8228 30.5891 39.0737 30.5888C41.3245 30.5885 43.4833 31.4823 45.0751 33.0737C46.667 34.665 47.5614 36.8236 47.5618 39.0744C47.5621 41.3253 46.6682 43.4841 45.0769 45.0759C43.4855 46.6677 41.327 47.5622 39.0761 47.5625ZM52.997 21.9579C53.6552 21.9584 54.2984 22.1539 54.8455 22.5199C55.3925 22.8858 55.8188 23.4058 56.0704 24.0139C56.3221 24.6221 56.3878 25.2912 56.2593 25.9367C56.1307 26.5822 55.8138 27.1751 55.3484 27.6405C54.883 28.1059 54.2901 28.4229 53.6446 28.5514C52.9991 28.6799 52.33 28.6142 51.7218 28.3625C51.1136 28.1109 50.5937 27.6846 50.2278 27.1376C49.8618 26.5905 49.6662 25.9473 49.6658 25.2891C49.6658 23.4525 50.9113 21.9579 52.997 21.9579Z" fill="var(--fill-0, black)"/>
</g>
</svg>
