<svg preserveAspectRatio="none" width="100%" height="100%" overflow="visible" style="display: block;" viewBox="0 0 79 79" fill="none" xmlns="http://www.w3.org/2000/svg">
<g id="Group">
<path id="Vector" d="M39.0572 0C17.5223 0 0 17.5455 0 39.1252C0 60.6964 17.5223 78.2506 39.0572 78.2506C60.5946 78.2506 78.1158 60.6964 78.1158 39.1252C78.1158 17.5455 60.5946 0 39.0572 0ZM39.0572 69.5336C22.318 69.5336 8.70129 55.8927 8.70129 39.1254C8.70129 22.3509 22.318 8.71013 39.0572 8.71013C55.7982 8.71013 69.4149 22.3511 69.4149 39.1254C69.4147 55.8927 55.798 69.5336 39.0572 69.5336Z" fill="var(--fill-0, black)"/>
<path id="Vector_2" d="M51.8769 46.2003C49.3819 50.4896 44.7423 53.1505 39.7692 53.1505C32.0465 53.1505 25.7558 46.8498 25.7558 39.1128C25.7558 31.3693 32.0465 25.0665 39.7692 25.0665C44.7425 25.0665 49.3819 27.7371 51.8769 32.018L52.1994 32.5774H61.6124L61.0473 31.0592C59.4094 26.7119 56.5354 23.0157 52.7308 20.3774C48.9167 17.7324 44.4366 16.3292 39.7692 16.3292C27.2311 16.3292 17.0348 26.5528 17.0348 39.1128C17.0348 51.6735 27.2311 61.8876 39.7692 61.8876C44.4366 61.8876 48.9165 60.4891 52.7308 57.84C56.5354 55.2011 59.4094 51.5061 61.0473 47.1588L61.6124 45.6398H52.1994L51.8769 46.2003Z" fill="var(--fill-0, black)"/>
</g>
</svg>
