<svg width="1235" height="776" viewBox="0 0 1235 776" fill="none" xmlns="http://www.w3.org/2000/svg">
<path d="M802.681 695.343H752.652C751.005 695.343 749.67 696.681 749.67 698.331C749.67 699.98 751.005 701.318 752.652 701.318H802.681C804.328 701.318 805.666 699.98 805.666 698.331C805.666 696.681 804.328 695.343 802.681 695.343Z" fill="#ED7445"/>
<path d="M781.728 652.743C781.493 652.099 780.882 651.67 780.197 651.67H774.463C773.771 651.67 773.154 652.108 772.925 652.763L756.781 699.024H798.548L781.728 652.743Z" fill="#ED7445"/>
<path d="M769.938 661.325L767.389 668.632H787.503L784.846 661.325H769.938Z" fill="#ECEFF1"/>
<path d="M763.44 679.943L760.891 687.251H794.273L791.615 679.943H763.44Z" fill="#ECEFF1"/>
<path d="M345.431 695.343H295.402C293.755 695.343 292.42 696.681 292.42 698.331C292.42 699.98 293.755 701.318 295.402 701.318H345.431C347.078 701.318 348.414 699.98 348.414 698.331C348.414 696.681 347.081 695.343 345.431 695.343Z" fill="#ED7445"/>
<path d="M324.482 652.743C324.247 652.099 323.636 651.67 322.951 651.67H317.217C316.525 651.67 315.908 652.108 315.679 652.763L299.535 699.024H341.302L324.482 652.743Z" fill="#ED7445"/>
<path d="M312.688 661.325L310.139 668.632H330.253L327.598 661.325H312.688Z" fill="#ECEFF1"/>
<path d="M306.19 679.943L303.641 687.251H337.02L334.363 679.943H306.19Z" fill="#ECEFF1"/>
<path opacity="0.5" d="M348.092 362.275H228.186V570.665H348.092H380.873H521.839V207.28H348.092V362.275Z" fill="#D4E0FF"/>
<path opacity="0.5" d="M719.494 374.897V76.464H545.748V570.665H712.653H719.494H847.052V374.897H719.494Z" fill="#D4E0FF"/>
<path d="M1025.61 564.065H72.4688V568.465H1025.61V564.065Z" fill="#516092"/>
<path d="M700.172 258.303H281.311V588.023H700.172V258.303Z" fill="#BCCCFD"/>
<path d="M700.172 295.652H281.311V588.023H700.172V295.652Z" fill="white"/>
<path d="M296.319 282.383C299.695 282.383 302.431 279.642 302.431 276.261C302.431 272.88 299.695 270.139 296.319 270.139C292.943 270.139 290.207 272.88 290.207 276.261C290.207 279.642 292.943 282.383 296.319 282.383Z" fill="white"/>
<path d="M328.411 276.261C328.411 279.642 325.675 282.383 322.299 282.383C318.924 282.383 316.188 279.642 316.188 276.261C316.188 272.88 318.924 270.139 322.299 270.139C325.675 270.139 328.411 272.88 328.411 276.261Z" fill="white"/>
<path d="M354.396 276.261C354.396 279.642 351.659 282.383 348.284 282.383C344.908 282.383 342.172 279.642 342.172 276.261C342.172 272.88 344.908 270.139 348.284 270.139C351.659 270.139 354.396 272.88 354.396 276.261Z" fill="white"/>
<path d="M556.068 287.271H383.674C377.911 287.271 373.24 282.592 373.24 276.82C373.24 271.048 377.911 266.369 383.674 266.369H556.068C561.83 266.369 566.502 271.048 566.502 276.82C566.504 282.592 561.833 287.271 556.068 287.271Z" fill="white"/>
<path d="M674.654 287.271H593.036C587.273 287.271 582.602 282.592 582.602 276.82C582.602 271.048 587.273 266.369 593.036 266.369H674.654C680.417 266.369 685.088 271.048 685.088 276.82C685.088 282.592 680.417 287.271 674.654 287.271Z" fill="white"/>
<path d="M463.74 425.918H314.74V510.157H463.74V425.918Z" fill="#BCCCFD"/>
<path d="M463.74 322.531H314.74V406.769H463.74V322.531Z" fill="#BCCCFD"/>
<path d="M462.449 531.437H316.039V538.036H462.449V531.437Z" fill="#BCCCFD"/>
<path d="M462.449 553.434H316.039V560.033H462.449V553.434Z" fill="#BCCCFD"/>
<path d="M661.666 531.437H515.256V538.036H661.666V531.437Z" fill="#BCCCFD"/>
<path d="M661.666 553.434H515.256V560.034H661.666V553.434Z" fill="#BCCCFD"/>
<path d="M702.365 590.225H279.111V256.103H702.365V590.225ZM283.504 585.825H697.973V260.502H283.504V585.825Z" fill="#516092"/>
<path d="M802.713 540.603H759.742V178.382H802.713V540.603ZM764.135 536.204H798.32V182.781H764.135V536.204Z" fill="#516092"/>
<path d="M808.597 519.649H753.861V558.934H808.597V519.649Z" fill="#BCCCFD"/>
<path d="M800.752 498.806H762.686C761.814 498.806 761.023 498.289 760.672 497.486C760.322 496.685 760.481 495.753 761.073 495.11L797.675 455.517L800.899 458.504L767.71 494.404H800.75V498.806H800.752Z" fill="#516092"/>
<path d="M800.752 459.136H762.686C761.814 459.136 761.023 458.619 760.672 457.816C760.322 457.016 760.481 456.083 761.073 455.441L797.675 415.845L800.899 418.833L767.71 454.735H800.75V459.136H800.752Z" fill="#516092"/>
<path d="M800.752 419.466H762.686C761.814 419.466 761.023 418.949 760.672 418.146C760.322 417.346 760.481 416.413 761.073 415.77L797.675 376.175L800.899 379.163L767.71 415.064H800.75V419.466H800.752Z" fill="#516092"/>
<path d="M800.752 379.796H762.686C761.814 379.796 761.023 379.279 760.672 378.476C760.322 377.675 760.481 376.743 761.073 376.1L797.675 336.505L800.899 339.492L767.71 375.394H800.75V379.796H800.752Z" fill="#516092"/>
<path d="M800.752 340.126H762.686C761.814 340.126 761.023 339.609 760.672 338.806C760.322 338.005 760.481 337.073 761.073 336.43L797.675 296.835L800.899 299.822L767.71 335.724H800.75V340.126H800.752Z" fill="#516092"/>
<path d="M800.752 300.456H762.686C761.814 300.456 761.023 299.939 760.672 299.136C760.322 298.336 760.481 297.403 761.073 296.761L797.675 257.165L800.899 260.153L767.71 296.054H800.75V300.456H800.752Z" fill="#516092"/>
<path d="M800.752 260.786H762.686C761.814 260.786 761.023 260.269 760.672 259.466C760.322 258.665 760.481 257.733 761.073 257.09L797.675 217.495L800.899 220.482L767.71 256.384H800.75V260.786H800.752Z" fill="#516092"/>
<path d="M800.753 221.116H762.686C761.815 221.116 761.024 220.599 760.673 219.796C760.321 218.993 760.481 218.063 761.074 217.42L797.676 177.825L800.9 180.812L767.711 216.714H800.751V221.116H800.753Z" fill="#516092"/>
<path d="M802.641 163.085H732.98V221.906H802.641V163.085Z" fill="#ED7445"/>
<path d="M907.327 163.085H837.666V196.87H907.327V163.085Z" fill="#ED7445"/>
<path d="M906.169 167.381H562.1C560.888 167.381 559.904 166.395 559.904 165.181C559.904 163.967 560.888 162.981 562.1 162.981H906.169C907.381 162.981 908.365 163.967 908.365 165.181C908.365 166.395 907.381 167.381 906.169 167.381Z" fill="#516092"/>
<path d="M580.276 175.447H578.08V318.43H580.276V175.447Z" fill="#516092"/>
<path d="M827.264 551.912H735.191V569.2H827.264V551.912Z" fill="#516092"/>
<path d="M768.066 166.805C767.785 166.805 767.504 166.697 767.291 166.483L748.944 148.107H580.748L563.499 165.384C563.071 165.812 562.374 165.812 561.946 165.384C561.518 164.955 561.518 164.257 561.946 163.828L579.836 145.909H749.851L768.839 164.928C769.267 165.357 769.267 166.054 768.839 166.483C768.628 166.697 768.347 166.805 768.066 166.805Z" fill="#516092"/>
<path d="M907.634 166.805C907.239 166.805 906.857 166.589 906.661 166.215L888.301 131.085H843.776L826.512 165.104C826.237 165.645 825.574 165.857 825.036 165.586C824.496 165.311 824.28 164.649 824.555 164.108L842.43 128.886H889.632L908.607 165.195C908.888 165.733 908.682 166.398 908.144 166.679C907.979 166.765 907.805 166.805 907.634 166.805Z" fill="#516092"/>
<path d="M587.236 175.445C587.236 179.9 583.63 183.512 579.182 183.512C574.735 183.512 571.129 179.9 571.129 175.445C571.129 170.991 574.735 167.379 579.182 167.379C583.63 167.381 587.236 170.991 587.236 175.445Z" fill="#BCCCFD"/>
<path d="M665.105 315.565L481.211 332.583L489.966 427.503L673.861 410.486L665.105 315.565Z" fill="#BCCCFD"/>
<path d="M626.795 148.092C626.326 148.092 625.888 147.786 625.746 147.313C625.568 146.732 625.895 146.116 626.475 145.94L789.064 96.2834C789.313 96.2086 789.576 96.2218 789.811 96.323L866.873 128.899C867.431 129.134 867.694 129.779 867.457 130.34C867.222 130.901 866.576 131.162 866.018 130.925L789.326 98.5029L627.116 148.043C627.009 148.076 626.903 148.092 626.795 148.092Z" fill="#516092"/>
<path d="M763.804 166.952C763.545 166.952 763.282 166.906 763.025 166.807C761.892 166.376 761.323 165.106 761.753 163.969L787.354 96.4945C787.701 95.5816 788.601 95.0031 789.587 95.0845C790.563 95.1659 791.369 95.8808 791.56 96.8421L804.794 162.649C805.033 163.839 804.262 164.999 803.074 165.241C801.888 165.472 800.729 164.708 800.487 163.518L788.755 105.181L765.856 165.533C765.524 166.411 764.689 166.952 763.804 166.952Z" fill="#516092"/>
<path d="M793.827 97.2755C793.827 99.7238 791.846 101.708 789.402 101.708C786.957 101.708 784.977 99.7238 784.977 97.2755C784.977 94.8272 786.957 92.843 789.402 92.843C791.846 92.843 793.827 94.8272 793.827 97.2755Z" fill="#BCCCFD"/>
<path d="M603.647 167.014C603.406 167.014 603.162 166.934 602.958 166.769L581.393 149.31V165.634C581.393 166.241 580.901 166.734 580.295 166.734C579.689 166.734 579.197 166.241 579.197 165.634V147.007C579.197 146.582 579.441 146.197 579.823 146.015C580.203 145.832 580.658 145.883 580.987 146.153L604.341 165.06C604.813 165.441 604.886 166.134 604.504 166.607C604.286 166.875 603.968 167.014 603.647 167.014Z" fill="#516092"/>
<path d="M624.499 167.014C624.258 167.014 624.014 166.934 623.81 166.769L602.243 149.31V165.634C602.243 166.241 601.751 166.734 601.145 166.734C600.539 166.734 600.047 166.241 600.047 165.634V147.007C600.047 146.582 600.291 146.197 600.673 146.015C601.051 145.832 601.505 145.883 601.837 146.153L625.191 165.06C625.663 165.441 625.736 166.134 625.353 166.607C625.136 166.875 624.82 167.014 624.499 167.014Z" fill="#516092"/>
<path d="M645.353 167.014C645.111 167.014 644.867 166.934 644.663 166.769L623.097 149.31V165.634C623.097 166.241 622.605 166.734 621.998 166.734C621.392 166.734 620.9 166.241 620.9 165.634V147.007C620.9 146.582 621.144 146.197 621.526 146.015C621.904 145.832 622.359 145.883 622.69 146.153L646.044 165.06C646.517 165.441 646.589 166.134 646.207 166.607C645.992 166.875 645.673 167.014 645.353 167.014Z" fill="#516092"/>
<path d="M666.206 167.014C665.964 167.014 665.721 166.934 665.516 166.769L643.952 149.31V165.634C643.952 166.241 643.46 166.734 642.854 166.734C642.248 166.734 641.756 166.241 641.756 165.634V147.007C641.756 146.582 642 146.197 642.382 146.015C642.762 145.832 643.214 145.883 643.546 146.153L666.9 165.06C667.372 165.441 667.444 166.134 667.062 166.607C666.843 166.875 666.527 167.014 666.206 167.014Z" fill="#516092"/>
<path d="M687.058 167.014C686.816 167.014 686.572 166.934 686.368 166.769L664.802 149.31V165.634C664.802 166.241 664.31 166.734 663.704 166.734C663.097 166.734 662.605 166.241 662.605 165.634V147.007C662.605 146.582 662.849 146.197 663.231 146.015C663.611 145.832 664.064 145.883 664.395 146.153L687.75 165.06C688.222 165.441 688.294 166.134 687.912 166.607C687.697 166.875 687.378 167.014 687.058 167.014Z" fill="#516092"/>
<path d="M707.915 167.014C707.674 167.014 707.43 166.934 707.226 166.769L685.659 149.31V165.634C685.659 166.241 685.167 166.734 684.561 166.734C683.955 166.734 683.463 166.241 683.463 165.634V147.007C683.463 146.582 683.707 146.197 684.089 146.015C684.467 145.832 684.921 145.883 685.253 146.153L708.607 165.06C709.079 165.441 709.152 166.134 708.769 166.607C708.552 166.875 708.236 167.014 707.915 167.014Z" fill="#516092"/>
<path d="M728.769 167.014C728.527 167.014 728.283 166.934 728.079 166.769L706.513 149.31V165.634C706.513 166.241 706.021 166.734 705.414 166.734C704.808 166.734 704.316 166.241 704.316 165.634V147.007C704.316 146.582 704.56 146.197 704.942 146.015C705.32 145.832 705.775 145.883 706.106 146.153L729.46 165.06C729.933 165.441 730.005 166.134 729.623 166.607C729.406 166.875 729.089 167.014 728.769 167.014Z" fill="#516092"/>
<path d="M749.624 167.014C749.383 167.014 749.139 166.934 748.935 166.769L727.368 149.31V165.634C727.368 166.241 726.876 166.734 726.27 166.734C725.664 166.734 725.172 166.241 725.172 165.634V147.007C725.172 146.582 725.416 146.197 725.798 146.015C726.178 145.832 726.632 145.883 726.962 146.153L750.316 165.06C750.788 165.441 750.861 166.134 750.478 166.607C750.261 166.875 749.945 167.014 749.624 167.014Z" fill="#516092"/>
<path d="M872.902 167.013C872.59 167.013 872.281 166.882 872.063 166.624L844.056 133.516V165.634C844.056 166.241 843.564 166.734 842.957 166.734C842.351 166.734 841.859 166.241 841.859 165.634V130.518C841.859 130.056 842.147 129.644 842.58 129.486C843.015 129.325 843.498 129.453 843.796 129.807L873.741 165.203C874.134 165.665 874.075 166.36 873.614 166.752C873.405 166.928 873.153 167.013 872.902 167.013Z" fill="#516092"/>
<path d="M894.443 167.014C894.087 167.014 893.738 166.84 893.525 166.521L872.184 134.176V165.634C872.184 166.241 871.693 166.734 871.086 166.734C870.48 166.734 869.988 166.241 869.988 165.634V130.518C869.988 130.032 870.307 129.605 870.77 129.464C871.24 129.328 871.736 129.508 872.002 129.911L895.356 165.307C895.69 165.812 895.552 166.497 895.047 166.831C894.86 166.954 894.651 167.014 894.443 167.014Z" fill="#516092"/>
<path d="M586.101 321.362C586.101 325.187 583.004 328.287 579.187 328.287C575.368 328.287 572.273 325.185 572.273 321.362C572.273 317.537 575.37 314.437 579.187 314.437C583.004 314.435 586.101 317.537 586.101 321.362Z" fill="#ED7445"/>
<path d="M208.886 459.58H204.494V565.165H208.886V459.58Z" fill="#516092"/>
<path d="M125.431 459.58H121.039V565.165H125.431V459.58Z" fill="#516092"/>
<path d="M220.348 469.477H110.059V510.172H220.348V469.477Z" fill="#E3EBFF"/>
<path d="M220.348 510.172V471.677L200.07 510.172H220.348Z" fill="#ED7445"/>
<path d="M150.65 510.172H174.24L195.679 469.477H172.087L150.65 510.172Z" fill="#ED7445"/>
<path d="M122.678 469.477L110.059 493.432V510.172H124.83L146.267 469.477H122.678Z" fill="#ED7445"/>
<path d="M225.354 534.371H104.564V538.771H225.354V534.371Z" fill="#516092"/>
<path d="M973.154 459.58H968.762V565.165H973.154V459.58Z" fill="#516092"/>
<path d="M889.699 459.58H885.307V565.165H889.699V459.58Z" fill="#516092"/>
<path d="M984.616 469.477H874.326V510.172H984.616V469.477Z" fill="#E3EBFF"/>
<path d="M984.617 510.172V471.677L964.338 510.172H984.617Z" fill="#ED7445"/>
<path d="M914.924 510.172H938.513L959.95 469.477H936.361L914.924 510.172Z" fill="#ED7445"/>
<path d="M886.945 469.477L874.326 493.432V510.172H889.098L910.535 469.477H886.945Z" fill="#ED7445"/>
<path d="M989.628 534.371H868.838V538.771H989.628V534.371Z" fill="#516092"/>
<path d="M273.414 595.583H223.383C221.736 595.583 220.4 596.921 220.4 598.573C220.4 600.225 221.736 601.56 223.383 601.56H273.414C275.061 601.56 276.396 600.222 276.396 598.573C276.396 596.923 275.061 595.583 273.414 595.583Z" fill="#ED7445"/>
<path d="M252.458 552.981C252.223 552.337 251.613 551.908 250.927 551.908H245.193C244.501 551.908 243.884 552.345 243.656 553.001L227.512 599.261H269.279L252.458 552.981Z" fill="#ED7445"/>
<path d="M240.669 561.564L238.119 568.87H258.234L255.577 561.564H240.669Z" fill="#ECEFF1"/>
<path d="M234.171 580.183L231.621 587.49H265.003L262.346 580.183H234.171Z" fill="#ECEFF1"/>
<path opacity="0.5" d="M265.94 206.125C262.277 206.125 258.89 207.291 256.108 209.258V204.407C256.108 190.437 244.8 179.11 230.852 179.11C216.904 179.11 205.596 190.437 205.596 204.407V213.967C203.31 211.794 200.226 210.452 196.824 210.452C189.779 210.452 184.064 216.174 184.064 223.233H283.018C283.02 213.785 275.373 206.125 265.94 206.125Z" fill="#D4E0FF"/>
<path opacity="0.5" d="M469.876 137.188C467.208 137.188 464.744 138.037 462.719 139.469V135.936C462.719 125.765 454.487 117.52 444.332 117.52C434.177 117.52 425.946 125.767 425.946 135.936V142.896C424.281 141.314 422.037 140.338 419.559 140.338C414.429 140.338 410.27 144.504 410.27 149.643H482.311C482.311 142.764 476.743 137.188 469.876 137.188Z" fill="#D4E0FF"/>
<path d="M371.944 689V666.28H380.104C382.643 666.28 384.616 666.888 386.024 668.104C387.432 669.32 388.136 671.005 388.136 673.16C388.136 674.611 387.816 675.869 387.176 676.936C386.536 677.981 385.619 678.781 384.424 679.336C383.229 679.891 381.789 680.168 380.104 680.168H374.696V689H371.944ZM374.696 677.48H380.104C381.811 677.48 383.091 677.117 383.944 676.392C384.819 675.667 385.256 674.589 385.256 673.16C385.256 671.773 384.819 670.728 383.944 670.024C383.091 669.32 381.811 668.968 380.104 668.968H374.696V677.48ZM396.23 689.384C394.48 689.384 393.083 688.979 392.038 688.168C391.014 687.357 390.502 686.227 390.502 684.776C390.502 683.325 390.928 682.184 391.782 681.352C392.635 680.52 393.99 679.933 395.846 679.592L401.862 678.472C401.862 677.043 401.52 675.976 400.838 675.272C400.176 674.568 399.174 674.216 397.83 674.216C396.656 674.216 395.728 674.483 395.046 675.016C394.363 675.528 393.894 676.275 393.638 677.256L390.79 677.032C391.11 675.432 391.878 674.141 393.094 673.16C394.331 672.157 395.91 671.656 397.83 671.656C400.006 671.656 401.67 672.275 402.822 673.512C403.974 674.728 404.55 676.413 404.55 678.568V685.576C404.55 685.96 404.614 686.237 404.742 686.408C404.891 686.557 405.126 686.632 405.446 686.632H406.118V689C406.032 689.021 405.894 689.032 405.702 689.032C405.51 689.053 405.307 689.064 405.094 689.064C404.326 689.064 403.696 688.947 403.206 688.712C402.736 688.456 402.395 688.072 402.182 687.56C401.968 687.027 401.862 686.333 401.862 685.48L402.182 685.544C402.032 686.269 401.67 686.931 401.094 687.528C400.518 688.104 399.803 688.563 398.95 688.904C398.096 689.224 397.19 689.384 396.23 689.384ZM396.486 687.016C397.616 687.016 398.576 686.803 399.366 686.376C400.176 685.928 400.795 685.331 401.222 684.584C401.648 683.816 401.862 682.963 401.862 682.024V680.808L396.358 681.832C395.206 682.045 394.406 682.376 393.958 682.824C393.531 683.251 393.318 683.816 393.318 684.52C393.318 685.309 393.595 685.928 394.15 686.376C394.726 686.803 395.504 687.016 396.486 687.016ZM415.523 694.184C414.307 694.184 413.209 693.981 412.227 693.576C411.246 693.171 410.425 692.595 409.763 691.848C409.102 691.101 408.654 690.237 408.419 689.256L411.235 689.064C411.491 689.853 411.939 690.472 412.579 690.92C413.241 691.389 414.222 691.624 415.523 691.624C417.059 691.624 418.233 691.315 419.043 690.696C419.875 690.077 420.291 689.149 420.291 687.912V685.16C419.886 686.056 419.235 686.771 418.339 687.304C417.443 687.837 416.441 688.104 415.331 688.104C413.902 688.104 412.622 687.752 411.491 687.048C410.382 686.344 409.507 685.373 408.867 684.136C408.249 682.899 407.939 681.48 407.939 679.88C407.939 678.259 408.249 676.84 408.867 675.624C409.486 674.387 410.339 673.416 411.427 672.712C412.537 672.008 413.795 671.656 415.203 671.656C416.398 671.656 417.465 671.933 418.403 672.488C419.363 673.043 420.035 673.789 420.419 674.728V672.04H422.979V687.848C422.979 689.171 422.681 690.301 422.083 691.24C421.486 692.2 420.633 692.925 419.523 693.416C418.414 693.928 417.081 694.184 415.523 694.184ZM415.459 685.544C416.91 685.544 418.073 685.043 418.947 684.04C419.822 683.016 420.27 681.629 420.291 679.88C420.313 678.707 420.121 677.704 419.715 676.872C419.331 676.019 418.766 675.368 418.019 674.92C417.294 674.451 416.441 674.216 415.459 674.216C413.966 674.216 412.803 674.728 411.971 675.752C411.161 676.755 410.755 678.131 410.755 679.88C410.755 681.629 411.171 683.016 412.003 684.04C412.857 685.043 414.009 685.544 415.459 685.544ZM434.403 689.384C432.803 689.384 431.416 689.021 430.243 688.296C429.091 687.571 428.195 686.547 427.555 685.224C426.936 683.88 426.627 682.312 426.627 680.52C426.627 678.728 426.936 677.171 427.555 675.848C428.195 674.525 429.08 673.501 430.211 672.776C431.363 672.029 432.717 671.656 434.275 671.656C435.747 671.656 437.048 672.008 438.179 672.712C439.309 673.395 440.184 674.397 440.803 675.72C441.443 677.043 441.763 678.653 441.763 680.552V681.352H429.443C429.549 683.165 430.029 684.531 430.883 685.448C431.757 686.365 432.931 686.824 434.403 686.824C435.512 686.824 436.419 686.568 437.123 686.056C437.848 685.523 438.349 684.829 438.627 683.976L441.507 684.2C441.059 685.715 440.205 686.963 438.947 687.944C437.709 688.904 436.195 689.384 434.403 689.384ZM429.443 678.984H438.819C438.691 677.341 438.211 676.136 437.379 675.368C436.568 674.6 435.533 674.216 434.275 674.216C432.973 674.216 431.896 674.621 431.043 675.432C430.211 676.221 429.677 677.405 429.443 678.984ZM462.196 689.512C460.447 689.512 458.922 689.171 457.62 688.488C456.34 687.805 455.348 686.835 454.644 685.576C453.962 684.296 453.62 682.792 453.62 681.064V666.248H456.372V681.064C456.372 682.899 456.874 684.317 457.876 685.32C458.9 686.323 460.34 686.824 462.196 686.824C464.031 686.824 465.45 686.323 466.452 685.32C467.476 684.317 467.988 682.899 467.988 681.064V666.248H470.74V681.064C470.74 682.792 470.388 684.296 469.684 685.576C469.002 686.835 468.02 687.805 466.74 688.488C465.46 689.171 463.946 689.512 462.196 689.512ZM475.779 689V672.04H478.243L478.339 676.36L478.019 676.072C478.232 675.069 478.605 674.248 479.139 673.608C479.672 672.947 480.312 672.456 481.059 672.136C481.827 671.816 482.648 671.656 483.523 671.656C484.824 671.656 485.891 671.944 486.723 672.52C487.576 673.096 488.205 673.875 488.611 674.856C489.037 675.816 489.251 676.893 489.251 678.088V689H486.563V678.856C486.563 677.811 486.435 676.936 486.179 676.232C485.944 675.507 485.56 674.963 485.027 674.6C484.493 674.216 483.8 674.024 482.947 674.024C481.645 674.024 480.568 674.44 479.715 675.272C478.883 676.083 478.467 677.277 478.467 678.856V689H475.779ZM500.014 689.384C498.542 689.384 497.262 689.021 496.174 688.296C495.107 687.571 494.286 686.547 493.71 685.224C493.134 683.901 492.846 682.333 492.846 680.52C492.846 678.707 493.134 677.139 493.71 675.816C494.286 674.493 495.107 673.469 496.174 672.744C497.262 672.019 498.542 671.656 500.014 671.656C501.144 671.656 502.179 671.901 503.118 672.392C504.056 672.861 504.76 673.533 505.23 674.408V666.28H507.918V689H505.486L505.39 686.44C504.92 687.357 504.206 688.083 503.246 688.616C502.286 689.128 501.208 689.384 500.014 689.384ZM500.558 686.824C501.56 686.824 502.403 686.568 503.086 686.056C503.79 685.544 504.323 684.819 504.686 683.88C505.048 682.92 505.23 681.8 505.23 680.52C505.23 679.197 505.048 678.067 504.686 677.128C504.323 676.189 503.79 675.475 503.086 674.984C502.403 674.472 501.56 674.216 500.558 674.216C499.064 674.216 497.87 674.781 496.974 675.912C496.099 677.021 495.661 678.557 495.661 680.52C495.661 682.461 496.099 683.997 496.974 685.128C497.87 686.259 499.064 686.824 500.558 686.824ZM519.34 689.384C517.74 689.384 516.354 689.021 515.18 688.296C514.028 687.571 513.132 686.547 512.492 685.224C511.874 683.88 511.564 682.312 511.564 680.52C511.564 678.728 511.874 677.171 512.492 675.848C513.132 674.525 514.018 673.501 515.148 672.776C516.3 672.029 517.655 671.656 519.212 671.656C520.684 671.656 521.986 672.008 523.116 672.712C524.247 673.395 525.122 674.397 525.74 675.72C526.38 677.043 526.7 678.653 526.7 680.552V681.352H514.38C514.487 683.165 514.967 684.531 515.82 685.448C516.695 686.365 517.868 686.824 519.34 686.824C520.45 686.824 521.356 686.568 522.06 686.056C522.786 685.523 523.287 684.829 523.564 683.976L526.444 684.2C525.996 685.715 525.143 686.963 523.884 687.944C522.647 688.904 521.132 689.384 519.34 689.384ZM514.38 678.984H523.756C523.628 677.341 523.148 676.136 522.316 675.368C521.506 674.6 520.471 674.216 519.212 674.216C517.911 674.216 516.834 674.621 515.98 675.432C515.148 676.221 514.615 677.405 514.38 678.984ZM530.341 689V672.04H532.709L532.837 676.328L532.581 676.232C532.795 674.781 533.253 673.725 533.957 673.064C534.683 672.381 535.643 672.04 536.837 672.04H538.501V674.6H536.869C536.016 674.6 535.301 674.76 534.725 675.08C534.171 675.379 533.744 675.837 533.445 676.456C533.168 677.053 533.029 677.821 533.029 678.76V689H530.341ZM559.554 689.512C557.528 689.512 555.746 689.043 554.21 688.104C552.674 687.144 551.48 685.779 550.626 684.008C549.773 682.237 549.346 680.125 549.346 677.672C549.346 675.219 549.773 673.107 550.626 671.336C551.48 669.544 552.674 668.168 554.21 667.208C555.746 666.248 557.528 665.768 559.554 665.768C562.306 665.768 564.44 666.461 565.954 667.848C567.469 669.235 568.461 671.123 568.93 673.512L566.018 673.704C565.698 672.083 565.016 670.803 563.97 669.864C562.925 668.925 561.453 668.456 559.554 668.456C558.104 668.456 556.824 668.829 555.714 669.576C554.626 670.301 553.773 671.357 553.154 672.744C552.536 674.109 552.226 675.752 552.226 677.672C552.226 679.592 552.536 681.235 553.154 682.6C553.773 683.965 554.626 685.011 555.714 685.736C556.824 686.461 558.104 686.824 559.554 686.824C561.538 686.824 563.074 686.312 564.162 685.288C565.25 684.243 565.933 682.835 566.21 681.064L569.122 681.256C568.845 682.899 568.301 684.339 567.49 685.576C566.68 686.813 565.602 687.784 564.258 688.488C562.936 689.171 561.368 689.512 559.554 689.512ZM579.34 689.384C577.783 689.384 576.418 689.021 575.244 688.296C574.071 687.571 573.164 686.547 572.524 685.224C571.884 683.88 571.564 682.312 571.564 680.52C571.564 678.707 571.884 677.139 572.524 675.816C573.164 674.493 574.071 673.469 575.244 672.744C576.418 672.019 577.783 671.656 579.34 671.656C580.898 671.656 582.252 672.019 583.404 672.744C584.578 673.469 585.484 674.493 586.124 675.816C586.764 677.139 587.084 678.707 587.084 680.52C587.084 682.312 586.764 683.88 586.124 685.224C585.484 686.547 584.578 687.571 583.404 688.296C582.252 689.021 580.898 689.384 579.34 689.384ZM579.34 686.824C580.898 686.824 582.103 686.269 582.956 685.16C583.831 684.029 584.268 682.483 584.268 680.52C584.268 678.557 583.831 677.021 582.956 675.912C582.103 674.781 580.898 674.216 579.34 674.216C577.783 674.216 576.567 674.781 575.692 675.912C574.818 677.021 574.38 678.557 574.38 680.52C574.38 682.483 574.818 684.029 575.692 685.16C576.567 686.269 577.783 686.824 579.34 686.824ZM590.748 689V672.04H593.212L593.308 676.36L592.988 676.072C593.201 675.069 593.574 674.248 594.108 673.608C594.641 672.947 595.281 672.456 596.028 672.136C596.796 671.816 597.617 671.656 598.492 671.656C599.793 671.656 600.86 671.944 601.692 672.52C602.545 673.096 603.174 673.875 603.58 674.856C604.006 675.816 604.22 676.893 604.22 678.088V689H601.532V678.856C601.532 677.811 601.404 676.936 601.148 676.232C600.913 675.507 600.529 674.963 599.996 674.6C599.462 674.216 598.769 674.024 597.916 674.024C596.614 674.024 595.537 674.44 594.684 675.272C593.852 676.083 593.436 677.277 593.436 678.856V689H590.748ZM615.142 689.384C613.628 689.384 612.337 689.139 611.27 688.648C610.225 688.157 609.404 687.485 608.806 686.632C608.23 685.757 607.9 684.765 607.814 683.656L610.63 683.464C610.801 684.488 611.238 685.309 611.942 685.928C612.646 686.525 613.713 686.824 615.142 686.824C616.294 686.824 617.212 686.643 617.894 686.28C618.598 685.896 618.95 685.288 618.95 684.456C618.95 684.008 618.844 683.635 618.63 683.336C618.417 683.037 618.001 682.781 617.382 682.568C616.764 682.333 615.846 682.109 614.63 681.896C613.009 681.597 611.729 681.235 610.79 680.808C609.873 680.36 609.212 679.816 608.806 679.176C608.422 678.515 608.23 677.736 608.23 676.84C608.23 675.325 608.785 674.088 609.894 673.128C611.004 672.147 612.582 671.656 614.63 671.656C616.017 671.656 617.18 671.912 618.118 672.424C619.078 672.915 619.825 673.576 620.358 674.408C620.913 675.219 621.276 676.115 621.446 677.096L618.63 677.288C618.502 676.691 618.268 676.168 617.926 675.72C617.585 675.251 617.137 674.888 616.582 674.632C616.028 674.355 615.366 674.216 614.598 674.216C613.382 674.216 612.486 674.451 611.91 674.92C611.334 675.389 611.046 675.987 611.046 676.712C611.046 677.267 611.174 677.725 611.43 678.088C611.708 678.429 612.145 678.717 612.742 678.952C613.34 679.165 614.14 679.357 615.142 679.528C616.87 679.827 618.214 680.189 619.174 680.616C620.134 681.043 620.806 681.565 621.19 682.184C621.574 682.803 621.766 683.56 621.766 684.456C621.766 685.501 621.468 686.397 620.87 687.144C620.294 687.869 619.505 688.424 618.502 688.808C617.521 689.192 616.401 689.384 615.142 689.384ZM630.987 689C629.451 689 628.309 688.648 627.563 687.944C626.837 687.24 626.475 686.141 626.475 684.648V668.072H629.163V684.584C629.163 685.352 629.333 685.885 629.675 686.184C630.016 686.483 630.539 686.632 631.243 686.632H633.675V689H630.987ZM623.979 674.408V672.04H633.675V674.408H623.979ZM637.466 689V672.04H639.834L639.962 676.328L639.706 676.232C639.92 674.781 640.378 673.725 641.082 673.064C641.808 672.381 642.768 672.04 643.962 672.04H645.626V674.6H643.994C643.141 674.6 642.426 674.76 641.85 675.08C641.296 675.379 640.869 675.837 640.57 676.456C640.293 677.053 640.154 677.821 640.154 678.76V689H637.466ZM654.534 689.384C652.849 689.384 651.494 688.819 650.47 687.688C649.468 686.536 648.966 684.957 648.966 682.952V672.04H651.654V682.216C651.654 683.859 651.942 685.075 652.518 685.864C653.116 686.632 654.022 687.016 655.238 687.016C656.582 687.016 657.638 686.589 658.406 685.736C659.174 684.861 659.558 683.667 659.558 682.152V672.04H662.246V689H659.686V684.808L660.102 685.032C659.761 686.419 659.11 687.496 658.15 688.264C657.19 689.011 655.985 689.384 654.534 689.384ZM673.684 689.384C672.105 689.384 670.729 689.021 669.556 688.296C668.404 687.571 667.508 686.547 666.868 685.224C666.228 683.88 665.908 682.312 665.908 680.52C665.908 678.728 666.228 677.171 666.868 675.848C667.508 674.525 668.404 673.501 669.556 672.776C670.729 672.029 672.105 671.656 673.684 671.656C674.985 671.656 676.137 671.891 677.14 672.36C678.164 672.808 678.996 673.469 679.636 674.344C680.276 675.219 680.692 676.285 680.884 677.544L678.068 677.736C677.876 676.605 677.385 675.741 676.596 675.144C675.807 674.525 674.836 674.216 673.684 674.216C672.127 674.216 670.911 674.781 670.036 675.912C669.161 677.021 668.724 678.557 668.724 680.52C668.724 682.483 669.161 684.029 670.036 685.16C670.911 686.269 672.127 686.824 673.684 686.824C674.836 686.824 675.807 686.504 676.596 685.864C677.385 685.224 677.876 684.264 678.068 682.984L680.884 683.176C680.692 684.435 680.276 685.533 679.636 686.472C678.996 687.389 678.164 688.104 677.14 688.616C676.137 689.128 674.985 689.384 673.684 689.384ZM689.768 689C688.232 689 687.091 688.648 686.344 687.944C685.619 687.24 685.256 686.141 685.256 684.648V668.072H687.944V684.584C687.944 685.352 688.115 685.885 688.456 686.184C688.797 686.483 689.32 686.632 690.024 686.632H692.456V689H689.768ZM682.76 674.408V672.04H692.456V674.408H682.76ZM695.904 689V672.04H698.592V689H695.904ZM695.84 669.384V666.248H698.656V669.384H695.84ZM710.028 689.384C708.47 689.384 707.105 689.021 705.932 688.296C704.758 687.571 703.852 686.547 703.212 685.224C702.572 683.88 702.252 682.312 702.252 680.52C702.252 678.707 702.572 677.139 703.212 675.816C703.852 674.493 704.758 673.469 705.932 672.744C707.105 672.019 708.47 671.656 710.028 671.656C711.585 671.656 712.94 672.019 714.092 672.744C715.265 673.469 716.172 674.493 716.812 675.816C717.452 677.139 717.772 678.707 717.772 680.52C717.772 682.312 717.452 683.88 716.812 685.224C716.172 686.547 715.265 687.571 714.092 688.296C712.94 689.021 711.585 689.384 710.028 689.384ZM710.028 686.824C711.585 686.824 712.79 686.269 713.644 685.16C714.518 684.029 714.956 682.483 714.956 680.52C714.956 678.557 714.518 677.021 713.644 675.912C712.79 674.781 711.585 674.216 710.028 674.216C708.47 674.216 707.254 674.781 706.38 675.912C705.505 677.021 705.068 678.557 705.068 680.52C705.068 682.483 705.505 684.029 706.38 685.16C707.254 686.269 708.47 686.824 710.028 686.824ZM721.435 689V672.04H723.899L723.995 676.36L723.675 676.072C723.888 675.069 724.262 674.248 724.795 673.608C725.328 672.947 725.968 672.456 726.715 672.136C727.483 671.816 728.304 671.656 729.179 671.656C730.48 671.656 731.547 671.944 732.379 672.52C733.232 673.096 733.862 673.875 734.267 674.856C734.694 675.816 734.907 676.893 734.907 678.088V689H732.219V678.856C732.219 677.811 732.091 676.936 731.835 676.232C731.6 675.507 731.216 674.963 730.683 674.6C730.15 674.216 729.456 674.024 728.603 674.024C727.302 674.024 726.224 674.44 725.371 675.272C724.539 676.083 724.123 677.277 724.123 678.856V689H721.435Z" fill="black"/>
</svg>
