<svg width="800" height="800" viewBox="0 0 800 800" fill="none" xmlns="http://www.w3.org/2000/svg">
<path d="M642.676 192.677C652.442 182.911 652.442 167.091 642.676 157.325C632.911 147.559 617.091 147.559 607.325 157.325L557.325 207.325L542.677 221.973L510.352 189.648C490.845 170.117 459.155 170.117 439.648 189.648L414.648 214.648C412.678 216.619 411.048 218.786 409.477 220.978C375.509 207.602 338.658 200 300 200C134.583 200 0 334.583 0 500C0 665.417 134.583 800 300 800C465.417 800 600 665.417 600 500C600 461.342 592.4 424.489 579.022 390.523C581.212 388.95 583.381 387.322 585.352 385.352L610.352 360.352C629.883 340.833 629.883 309.167 610.352 289.648L578.027 257.323L592.675 242.675L642.676 192.677ZM300 350C217.284 350 150 417.286 150 500C150 513.806 138.806 525 125 525C111.194 525 100 513.806 100 500C100 389.722 189.722 300 300 300C313.806 300 325 311.194 325 325C325 338.806 313.806 350 300 350Z" fill="white"/>
<path d="M717.211 232.781C707.445 223.016 691.625 223.016 681.859 232.781C672.094 242.547 672.094 258.367 681.859 268.133L706.859 293.133C711.742 298.016 718.139 300.458 724.536 300.458C730.933 300.458 737.33 298.016 742.213 293.133C751.978 283.367 751.978 267.547 742.213 257.781L717.211 232.781Z" fill="white"/>
<path d="M531.858 118.133C536.741 123.016 543.138 125.458 549.534 125.458C555.931 125.458 562.328 123.016 567.211 118.133C576.977 108.367 576.977 92.5468 567.211 82.7812L542.211 57.7812C532.445 48.0156 516.625 48.0156 506.859 57.7812C497.094 67.5468 497.094 83.3672 506.859 93.1328L531.858 118.133Z" fill="white"/>
<path d="M625 100C638.819 100 650 88.8063 650 75V25C650 11.1938 638.819 0 625 0C611.181 0 600 11.1938 600 25V75C600 88.8063 611.181 100 625 100Z" fill="white"/>
<path d="M775 150.916H725C711.181 150.916 700 162.109 700 175.916C700 189.722 711.181 200.916 725 200.916H775C788.819 200.916 800 189.722 800 175.916C800 162.109 788.819 150.916 775 150.916Z" fill="white"/>
<path d="M682.789 118.133C687.672 123.016 694.069 125.458 700.465 125.458C706.862 125.458 713.259 123.016 718.142 118.133L768.142 68.1328C777.908 58.3672 777.908 42.5468 768.142 32.7812C758.376 23.0156 742.556 23.0156 732.79 32.7812L682.79 82.7812C673.023 92.5469 673.023 108.367 682.789 118.133Z" fill="white"/>
</svg>
