<svg width="72" height="72" viewBox="0 0 72 72" fill="none" xmlns="http://www.w3.org/2000/svg">
<path d="M35.9144 71.0433C15.1203 71.0433 0.102266 56.1216 0.102266 35.7125C0.102266 15.2072 15.1203 0.381735 35.9144 0.381735C56.7085 0.381735 71.7265 15.3035 71.7265 35.7125C71.7265 56.0253 56.7085 71.0433 35.9144 71.0433ZM35.9144 67.2888C54.1093 67.2888 67.3944 54.0037 67.3944 35.7125C67.3944 17.7102 54.1093 4.13623 35.9144 4.13623C17.7195 4.13623 4.43438 17.7102 4.43438 35.7125C4.43438 54.0037 17.7195 67.2888 35.9144 67.2888ZM54.3981 27.1446H46.6965C45.1562 22.2348 41.2092 19.443 36.1069 19.443C28.4054 19.443 23.977 25.6043 23.977 35.8088C23.977 46.0133 28.4054 52.0783 36.1069 52.0783C41.0167 52.0783 44.8674 49.2865 46.6003 44.5693H54.3018C51.9913 53.7149 44.9637 58.047 36.3957 58.047C23.977 58.047 16.2755 49.6715 16.2755 35.8088C16.2755 21.946 23.8808 13.2818 36.2995 13.2818C44.9637 13.2818 52.3764 18.0953 54.3981 27.1446Z" fill="black"/>
</svg>
