<svg width="74" height="74" viewBox="0 0 74 74" fill="none" xmlns="http://www.w3.org/2000/svg">
<path d="M36.514 0C16.3813 0 0 16.403 0 36.5776C0 56.7442 16.3813 73.1553 36.514 73.1553C56.649 73.1553 73.0293 56.7442 73.0293 36.5776C73.0293 16.403 56.649 0 36.514 0ZM36.514 65.006C20.8648 65.006 8.13471 52.2533 8.13471 36.5778C8.13471 20.8955 20.8648 8.14297 36.514 8.14297C52.1649 8.14297 64.895 20.8957 64.895 36.5778C64.8948 52.2533 52.1647 65.006 36.514 65.006Z" fill="black"/>
<path d="M48.4987 43.1917C46.1661 47.2018 41.8287 49.6893 37.1794 49.6893C29.9595 49.6893 24.0785 43.799 24.0785 36.5657C24.0785 29.3264 29.9595 23.4341 37.1794 23.4341C41.8289 23.4341 46.1661 25.9308 48.4987 29.9329L48.8002 30.4559H57.6003L57.072 29.0365C55.5408 24.9723 52.8538 21.5167 49.297 19.0503C45.7313 16.5775 41.5429 15.2656 37.1794 15.2656C25.4577 15.2656 15.9253 24.8236 15.9253 36.5657C15.9253 48.3086 25.4577 57.8576 37.1794 57.8576C41.5429 57.8576 45.7311 56.5501 49.297 54.0735C52.8538 51.6064 55.5408 48.1521 57.072 44.0879L57.6003 42.6677H48.8002L48.4987 43.1917Z" fill="black"/>
</svg>
